<?xml version="1.0" encoding="UTF-8" standalone="no"?>
<svg
   xmlns:dc="http://purl.org/dc/elements/1.1/"
   xmlns:cc="http://creativecommons.org/ns#"
   xmlns:rdf="http://www.w3.org/1999/02/22-rdf-syntax-ns#"
   xmlns:svg="http://www.w3.org/2000/svg"
   xmlns="http://www.w3.org/2000/svg"
   viewBox="0 0 369.18668 199.03467"
   height="199.03467"
   width="369.18668"
   xml:space="preserve"
   id="svg2"
   version="1.1"><metadata
     id="metadata8"><rdf:RDF><cc:Work
         rdf:about=""><dc:format>image/svg+xml</dc:format><dc:type
           rdf:resource="http://purl.org/dc/dcmitype/StillImage" /></cc:Work></rdf:RDF></metadata><defs
     id="defs6"><clipPath
       id="clipPath22"
       clipPathUnits="userSpaceOnUse"><path
         id="path20"
         d="M 0,149.276 H 276.89 V 0 H 0 Z" /></clipPath></defs><g
     transform="matrix(1.3333333,0,0,-1.3333333,0,199.03467)"
     id="g10"><path
       id="path12"
       style="fill:#ffffff;fill-opacity:1;fill-rule:nonzero;stroke:none"
       d="M 5.184,5.266 H 271.407 V 143.821 H 5.184 Z" /><path
       id="path14"
       style="fill:#1d1d1b;fill-opacity:1;fill-rule:nonzero;stroke:none"
       d="M 6.684,101.052 H 269.907 V 6.766 H 6.684 Z m -3,-97.286 H 272.907 V 145.321 H 3.684 Z" /><g
       id="g16"><g
         clip-path="url(#clipPath22)"
         id="g18"><g
           transform="translate(31.604,100.1306)"
           id="g24"><path
             id="path26"
             style="fill:#ffffff;fill-opacity:1;fill-rule:nonzero;stroke:none"
             d="m 0,0 c -2.248,0 -4.092,0.269 -5.533,0.806 -1.442,0.537 -2.577,1.301 -3.408,2.29 -0.83,0.99 -1.405,2.199 -1.722,3.628 -0.317,1.429 -0.476,3.035 -0.476,4.818 v 15.097 h 8.501 V 11.542 c 0,-0.831 0.03,-1.563 0.091,-2.198 0.061,-0.636 0.189,-1.161 0.385,-1.576 0.195,-0.415 0.476,-0.733 0.843,-0.953 0.366,-0.219 0.855,-0.329 1.465,-0.329 0.586,0 1.069,0.097 1.448,0.293 0.378,0.195 0.665,0.5 0.861,0.916 0.195,0.415 0.33,0.94 0.403,1.576 0.073,0.634 0.11,1.392 0.11,2.271 v 15.097 h 8.501 V 11.542 C 11.469,9.686 11.279,8.043 10.9,6.614 10.521,5.185 9.887,3.981 8.995,3.005 8.103,2.027 6.925,1.283 5.459,0.77 3.994,0.257 2.174,0 0,0" /></g><path
           id="path28"
           style="fill:#ffffff;fill-opacity:1;fill-rule:nonzero;stroke:none"
           d="m 62.676,100.68 h -8.501 v 26.089 h 8.501 z" /><g
           transform="translate(95.0664,126.7692)"
           id="g30"><path
             id="path32"
             style="fill:#ffffff;fill-opacity:1;fill-rule:nonzero;stroke:none"
             d="m 0,0 -0.77,-6.449 h -6.302 v -19.64 h -8.501 v 19.64 h -7.108 L -21.912,0 Z" /></g><g
           transform="translate(116.6846,110.0974)"
           id="g34"><path
             id="path36"
             style="fill:#ffffff;fill-opacity:1;fill-rule:nonzero;stroke:none"
             d="m 0,0 3.701,16.672 h 8.794 L 4.434,-9.417 h -9.015 l -8.061,26.089 h 8.977 z" /></g><g
           transform="translate(144.7153,111.4162)"
           id="g38"><path
             id="path40"
             style="fill:#ffffff;fill-opacity:1;fill-rule:nonzero;stroke:none"
             d="M 0,0 H 3.884 L 1.979,7.695 Z m 5.349,-5.936 h -6.851 l -1.21,-4.8 h -8.098 l 8.208,26.089 h 9.27 l 8.464,-26.089 h -8.61 z" /></g><g
           transform="translate(179.0488,111.4162)"
           id="g42"><path
             id="path44"
             style="fill:#ffffff;fill-opacity:1;fill-rule:nonzero;stroke:none"
             d="M 0,0 H 3.883 L 1.979,7.695 Z m 5.35,-5.936 h -6.853 l -1.21,-4.8 h -8.098 l 8.209,26.089 h 9.27 l 8.465,-26.089 H 6.521 Z" /></g><g
           transform="translate(211.9883,115.1535)"
           id="g46"><path
             id="path48"
             style="fill:#ffffff;fill-opacity:1;fill-rule:nonzero;stroke:none"
             d="M 0,0 H 2.382 C 4.067,0 4.91,0.843 4.91,2.528 V 3.151 C 4.91,4.031 4.702,4.647 4.287,5.002 3.871,5.355 3.2,5.533 2.271,5.533 H 0 Z M -8.171,-14.473 V 11.616 H 4.104 c 1.539,0 2.858,-0.215 3.958,-0.642 C 9.16,10.546 10.052,9.96 10.736,9.215 11.42,8.47 11.921,7.603 12.238,6.614 12.556,5.625 12.715,4.568 12.715,3.444 V 2.235 c 0,-1.563 -0.355,-2.943 -1.063,-4.14 -0.709,-1.198 -1.711,-2.138 -3.005,-2.822 l 5.057,-9.746 H 5.02 L 1.319,-6.156 H 0 v -8.317 z" /></g><g
           transform="translate(256.2148,126.7692)"
           id="g50"><path
             id="path52"
             style="fill:#ffffff;fill-opacity:1;fill-rule:nonzero;stroke:none"
             d="m 0,0 -0.77,-6.449 h -6.302 v -19.64 h -8.501 v 19.64 h -7.109 L -21.912,0 Z" /></g><g
           transform="translate(38.1992,87.0871)"
           id="g54"><path
             id="path56"
             style="fill:#1d1d1b;fill-opacity:1;fill-rule:nonzero;stroke:none"
             d="m 0,0 -0.623,-4.544 h -10.589 v -6.668 h 9.636 l -0.622,-4.544 h -9.014 v -10.333 h -5.57 V 0 Z" /></g><g
           transform="translate(49.9609,72.4299)"
           id="g58"><path
             id="path60"
             style="fill:#1d1d1b;fill-opacity:1;fill-rule:nonzero;stroke:none"
             d="m 0,0 c 0,-1.562 0.104,-2.827 0.312,-3.792 0.207,-0.966 0.524,-1.716 0.952,-2.253 0.427,-0.538 0.959,-0.904 1.594,-1.1 0.635,-0.195 1.38,-0.292 2.235,-0.292 0.806,0 1.527,0.097 2.162,0.292 0.635,0.196 1.172,0.569 1.612,1.118 0.44,0.549 0.776,1.306 1.008,2.271 0.231,0.965 0.348,2.217 0.348,3.756 v 3.225 c 0,1.563 -0.104,2.827 -0.311,3.792 C 9.704,7.982 9.386,8.733 8.959,9.271 8.531,9.808 8,10.174 7.365,10.37 6.729,10.565 5.984,10.663 5.13,10.663 4.324,10.663 3.603,10.565 2.968,10.37 2.333,10.174 1.795,9.802 1.355,9.252 0.916,8.703 0.58,7.945 0.348,6.98 0.116,6.015 0,4.764 0,3.225 Z m 15.902,0.074 c 0,-1.76 -0.165,-3.378 -0.494,-4.855 -0.33,-1.479 -0.905,-2.748 -1.722,-3.811 -0.819,-1.062 -1.918,-1.893 -3.298,-2.492 -1.381,-0.598 -3.133,-0.897 -5.258,-0.897 -2.175,0 -3.958,0.299 -5.35,0.897 -1.392,0.599 -2.491,1.43 -3.298,2.492 -0.806,1.063 -1.368,2.332 -1.685,3.811 -0.318,1.477 -0.477,3.095 -0.477,4.855 v 3.078 c 0,1.783 0.171,3.419 0.513,4.91 0.342,1.489 0.922,2.76 1.741,3.81 0.818,1.05 1.917,1.869 3.298,2.455 1.379,0.587 3.12,0.88 5.221,0.88 2.222,0 4.036,-0.312 5.441,-0.935 1.405,-0.623 2.504,-1.472 3.298,-2.546 0.793,-1.076 1.337,-2.345 1.63,-3.811 0.294,-1.466 0.44,-3.054 0.44,-4.763 z" /></g><g
           transform="translate(91.915,87.0871)"
           id="g62"><path
             id="path64"
             style="fill:#1d1d1b;fill-opacity:1;fill-rule:nonzero;stroke:none"
             d="m 0,0 -0.623,-4.544 h -7.072 v -21.545 h -5.569 v 21.545 h -7.695 L -20.336,0 Z" /></g><g
           transform="translate(102.5776,72.4299)"
           id="g66"><path
             id="path68"
             style="fill:#1d1d1b;fill-opacity:1;fill-rule:nonzero;stroke:none"
             d="m 0,0 c 0,-1.562 0.104,-2.827 0.312,-3.792 0.207,-0.966 0.524,-1.716 0.952,-2.253 0.427,-0.538 0.959,-0.904 1.594,-1.1 0.635,-0.195 1.38,-0.292 2.235,-0.292 0.806,0 1.527,0.097 2.162,0.292 0.635,0.196 1.172,0.569 1.612,1.118 0.44,0.549 0.776,1.306 1.008,2.271 0.231,0.965 0.348,2.217 0.348,3.756 v 3.225 c 0,1.563 -0.104,2.827 -0.311,3.792 C 9.704,7.982 9.386,8.733 8.959,9.271 8.531,9.808 8,10.174 7.365,10.37 6.729,10.565 5.984,10.663 5.13,10.663 4.324,10.663 3.603,10.565 2.968,10.37 2.333,10.174 1.795,9.802 1.355,9.252 0.916,8.703 0.58,7.945 0.348,6.98 0.116,6.015 0,4.764 0,3.225 Z m 15.902,0.074 c 0,-1.76 -0.165,-3.378 -0.494,-4.855 -0.33,-1.479 -0.905,-2.748 -1.722,-3.811 -0.819,-1.062 -1.918,-1.893 -3.298,-2.492 -1.381,-0.598 -3.133,-0.897 -5.258,-0.897 -2.175,0 -3.958,0.299 -5.35,0.897 -1.392,0.599 -2.491,1.43 -3.298,2.492 -0.806,1.063 -1.368,2.332 -1.685,3.811 -0.318,1.477 -0.477,3.095 -0.477,4.855 v 3.078 c 0,1.783 0.171,3.419 0.513,4.91 0.342,1.489 0.922,2.76 1.741,3.81 0.818,1.05 1.917,1.869 3.298,2.455 1.379,0.587 3.12,0.88 5.221,0.88 2.222,0 4.036,-0.312 5.441,-0.935 1.405,-0.623 2.504,-1.472 3.298,-2.546 0.793,-1.076 1.337,-2.345 1.63,-3.811 0.294,-1.466 0.44,-3.054 0.44,-4.763 z" /></g><g
           transform="translate(139.0352,82.9099)"
           id="g70"><path
             id="path72"
             style="fill:#1d1d1b;fill-opacity:1;fill-rule:nonzero;stroke:none"
             d="m 0,0 c -1.319,0 -2.437,-0.123 -3.353,-0.367 -0.916,-0.244 -1.655,-0.665 -2.216,-1.264 -0.563,-0.598 -0.966,-1.398 -1.21,-2.4 -0.244,-1.002 -0.366,-2.247 -0.366,-3.737 v -2.345 c 0,-1.564 0.11,-2.84 0.33,-3.829 0.219,-0.989 0.58,-1.765 1.081,-2.327 0.5,-0.563 1.154,-0.947 1.96,-1.154 0.806,-0.207 1.795,-0.311 2.968,-0.311 0.342,0 0.69,0.012 1.044,0.036 0.354,0.025 0.739,0.061 1.155,0.111 v 5.752 h -3.262 l 0.513,4.323 h 7.988 v -13.593 c -1.026,-0.343 -2.284,-0.623 -3.774,-0.844 -1.49,-0.219 -3.041,-0.329 -4.653,-0.329 -1.979,0 -3.671,0.238 -5.075,0.714 -1.405,0.477 -2.547,1.209 -3.426,2.199 -0.88,0.99 -1.521,2.229 -1.924,3.719 -0.403,1.49 -0.605,3.248 -0.605,5.276 v 2.675 c 0,1.832 0.202,3.5 0.605,5.002 0.403,1.502 1.081,2.79 2.033,3.865 0.954,1.075 2.205,1.906 3.756,2.492 1.552,0.586 3.475,0.879 5.771,0.879 1.27,0 2.516,-0.109 3.738,-0.329 C 4.299,3.994 5.3,3.75 6.083,3.481 L 5.167,-0.733 C 4.458,-0.538 3.688,-0.367 2.858,-0.22 2.027,-0.073 1.075,0 0,0" /></g><g
           transform="translate(159.5176,74.9221)"
           id="g74"><path
             id="path76"
             style="fill:#1d1d1b;fill-opacity:1;fill-rule:nonzero;stroke:none"
             d="m 0,0 h 4.287 c 1.27,0 2.21,0.305 2.82,0.916 0.612,0.61 0.916,1.502 0.916,2.675 v 0.586 c 0,2.394 -1.209,3.591 -3.627,3.591 H 0 Z m 13.447,3.591 c 0,-3.689 -1.564,-6.107 -4.69,-7.255 l 5.642,-10.26 H 8.317 l -4.837,9.6 H 0 v -9.6 H -5.424 V 12.165 H 5.459 c 1.416,0 2.632,-0.202 3.646,-0.605 1.013,-0.403 1.844,-0.953 2.492,-1.649 0.647,-0.696 1.118,-1.515 1.411,-2.454 0.293,-0.941 0.439,-1.961 0.439,-3.06 z" /></g><g
           transform="translate(187.8047,71.7707)"
           id="g78"><path
             id="path80"
             style="fill:#1d1d1b;fill-opacity:1;fill-rule:nonzero;stroke:none"
             d="M 0,0 H 6.118 L 3.077,10.003 Z m 7.291,-4.323 h -8.428 l -1.941,-6.449 h -5.424 l 8.685,26.088 h 5.862 l 8.904,-26.088 H 9.232 Z" /></g><g
           transform="translate(217.0068,71.7707)"
           id="g82"><path
             id="path84"
             style="fill:#1d1d1b;fill-opacity:1;fill-rule:nonzero;stroke:none"
             d="M 0,0 H 6.118 L 3.077,10.003 Z m 7.292,-4.323 h -8.428 l -1.942,-6.449 h -5.423 l 8.684,26.088 h 5.863 l 8.903,-26.088 H 9.233 Z" /></g><g
           transform="translate(255.627,87.0871)"
           id="g86"><path
             id="path88"
             style="fill:#1d1d1b;fill-opacity:1;fill-rule:nonzero;stroke:none"
             d="m 0,0 -0.623,-4.544 h -10.59 v -6.668 h 9.637 l -0.623,-4.544 h -9.014 v -10.333 h -5.569 V 0 Z" /></g><g
           transform="translate(33.106,44.6936)"
           id="g90"><path
             id="path92"
             style="fill:#1d1d1b;fill-opacity:1;fill-rule:nonzero;stroke:none"
             d="m 0,0 c -1.49,0 -2.754,-0.135 -3.792,-0.402 -1.039,-0.27 -1.881,-0.752 -2.528,-1.449 -0.648,-0.695 -1.118,-1.636 -1.411,-2.821 -0.293,-1.184 -0.44,-2.692 -0.44,-4.524 v -2.455 c 0,-1.809 0.134,-3.292 0.403,-4.453 0.268,-1.16 0.708,-2.077 1.319,-2.748 0.611,-0.671 1.405,-1.142 2.382,-1.411 0.977,-0.268 2.174,-0.402 3.591,-0.402 1.221,0 2.369,0.109 3.444,0.329 v 8.062 h -4.36 l 0.403,2.967 h 7.402 v -13.338 c -0.44,-0.17 -0.959,-0.323 -1.558,-0.458 -0.599,-0.133 -1.222,-0.25 -1.869,-0.347 -0.647,-0.098 -1.307,-0.171 -1.978,-0.22 -0.673,-0.049 -1.314,-0.073 -1.924,-0.073 -2.321,0 -4.195,0.287 -5.625,0.861 -1.428,0.573 -2.54,1.386 -3.334,2.437 -0.794,1.049 -1.332,2.307 -1.612,3.773 -0.281,1.466 -0.421,3.09 -0.421,4.874 v 2.711 c 0,1.857 0.17,3.529 0.512,5.02 0.342,1.49 0.953,2.766 1.833,3.829 0.879,1.062 2.07,1.881 3.572,2.455 1.503,0.574 3.402,0.861 5.698,0.861 1.148,0 2.272,-0.098 3.371,-0.293 C 4.177,2.589 5.069,2.369 5.753,2.125 L 5.093,-0.732 C 4.409,-0.537 3.646,-0.366 2.803,-0.22 1.96,-0.073 1.026,0 0,0" /></g><g
           transform="translate(53.332,34.801)"
           id="g94"><path
             id="path96"
             style="fill:#1d1d1b;fill-opacity:1;fill-rule:nonzero;stroke:none"
             d="m 0,0 h 5.496 c 1.612,0 2.84,0.348 3.682,1.044 0.843,0.696 1.264,1.838 1.264,3.426 v 0.476 c 0,1.563 -0.379,2.724 -1.135,3.481 C 8.549,9.184 7.365,9.563 5.752,9.563 H 0 Z m 14.107,4.47 c 0,-1.783 -0.416,-3.292 -1.246,-4.526 -0.831,-1.233 -2.113,-2.082 -3.847,-2.546 l 5.972,-10.882 H 10.919 L 5.35,-3.042 H 0 V -13.484 H -3.628 V 12.604 H 6.485 c 1.344,0 2.497,-0.189 3.463,-0.568 0.965,-0.379 1.752,-0.904 2.364,-1.575 0.609,-0.672 1.062,-1.46 1.355,-2.363 0.293,-0.905 0.44,-1.882 0.44,-2.932 z" /></g><g
           transform="translate(92.9409,35.9729)"
           id="g98"><path
             id="path100"
             style="fill:#1d1d1b;fill-opacity:1;fill-rule:nonzero;stroke:none"
             d="M 0,0 C 0,1.808 -0.128,3.285 -0.385,4.434 -0.642,5.582 -1.039,6.485 -1.576,7.146 -2.113,7.805 -2.785,8.263 -3.591,8.52 -4.397,8.776 -5.35,8.904 -6.449,8.904 -7.548,8.904 -8.501,8.776 -9.307,8.52 -10.113,8.263 -10.785,7.805 -11.322,7.146 -11.86,6.485 -12.263,5.575 -12.532,4.416 -12.801,3.255 -12.935,1.783 -12.935,0 v -3.225 c 0,-1.807 0.129,-3.285 0.385,-4.433 0.257,-1.149 0.654,-2.052 1.191,-2.711 0.537,-0.659 1.209,-1.117 2.015,-1.374 0.806,-0.257 1.759,-0.385 2.858,-0.385 1.1,0 2.052,0.128 2.859,0.385 0.805,0.257 1.477,0.715 2.015,1.374 0.537,0.659 0.94,1.562 1.209,2.711 C -0.135,-6.51 0,-5.032 0,-3.225 Z m -16.672,0 c 0,1.832 0.152,3.481 0.458,4.947 0.305,1.465 0.848,2.723 1.631,3.774 0.781,1.05 1.832,1.856 3.151,2.419 1.319,0.561 2.992,0.842 5.019,0.842 2.028,0 3.702,-0.281 5.02,-0.842 C -0.073,10.577 0.964,9.777 1.722,8.739 2.479,7.701 3.004,6.442 3.297,4.965 3.591,3.487 3.737,1.832 3.737,0 v -3.225 c 0,-1.832 -0.153,-3.48 -0.458,-4.946 -0.305,-1.466 -0.849,-2.724 -1.63,-3.773 -0.782,-1.051 -1.833,-1.858 -3.151,-2.419 -1.32,-0.562 -2.993,-0.843 -5.02,-0.843 -2.028,0 -3.701,0.281 -5.02,0.843 -1.319,0.561 -2.358,1.361 -3.115,2.4 -0.757,1.038 -1.282,2.296 -1.575,3.774 -0.293,1.478 -0.44,3.132 -0.44,4.964 z" /></g><g
           transform="translate(110.1621,47.4055)"
           id="g102"><path
             id="path104"
             style="fill:#1d1d1b;fill-opacity:1;fill-rule:nonzero;stroke:none"
             d="M 0,0 12.275,-20.189 V 0 h 3.371 V -26.089 H 12.312 L 0.037,-5.899 v -20.19 h -3.371 l 0,26.089 z" /></g><path
           id="path106"
           style="fill:#1d1d1b;fill-opacity:1;fill-rule:nonzero;stroke:none"
           d="m 140.245,21.317 h -3.665 v 26.089 h 3.665 z" /><g
           transform="translate(154.3506,47.4055)"
           id="g108"><path
             id="path110"
             style="fill:#1d1d1b;fill-opacity:1;fill-rule:nonzero;stroke:none"
             d="M 0,0 12.274,-20.189 V 0 h 3.372 V -26.089 H 12.312 L 0.036,-5.899 v -20.19 h -3.371 l 0,26.089 z" /></g><g
           transform="translate(192.0547,44.6936)"
           id="g112"><path
             id="path114"
             style="fill:#1d1d1b;fill-opacity:1;fill-rule:nonzero;stroke:none"
             d="m 0,0 c -1.49,0 -2.755,-0.135 -3.793,-0.402 -1.038,-0.27 -1.881,-0.752 -2.527,-1.449 -0.649,-0.695 -1.118,-1.636 -1.411,-2.821 -0.294,-1.184 -0.441,-2.692 -0.441,-4.524 v -2.455 c 0,-1.809 0.135,-3.292 0.403,-4.453 0.269,-1.16 0.708,-2.077 1.32,-2.748 0.61,-0.671 1.404,-1.142 2.382,-1.411 0.976,-0.268 2.173,-0.402 3.59,-0.402 1.221,0 2.37,0.109 3.445,0.329 v 8.062 h -4.361 l 0.403,2.967 h 7.402 v -13.338 c -0.439,-0.17 -0.959,-0.323 -1.558,-0.458 -0.598,-0.133 -1.221,-0.25 -1.868,-0.347 -0.648,-0.098 -1.307,-0.171 -1.978,-0.22 -0.673,-0.049 -1.315,-0.073 -1.924,-0.073 -2.321,0 -4.195,0.287 -5.625,0.861 -1.429,0.573 -2.541,1.386 -3.334,2.437 -0.795,1.049 -1.332,2.307 -1.612,3.773 -0.282,1.466 -0.421,3.09 -0.421,4.874 v 2.711 c 0,1.857 0.17,3.529 0.512,5.02 0.341,1.49 0.953,2.766 1.832,3.829 0.879,1.062 2.07,1.881 3.573,2.455 1.503,0.574 3.401,0.861 5.698,0.861 1.147,0 2.272,-0.098 3.371,-0.293 1.099,-0.196 1.99,-0.416 2.674,-0.66 L 5.093,-0.732 C 4.408,-0.537 3.646,-0.366 2.803,-0.22 1.96,-0.073 1.025,0 0,0" /></g><g
           transform="translate(224.9941,47.4055)"
           id="g116"><path
             id="path118"
             style="fill:#1d1d1b;fill-opacity:1;fill-rule:nonzero;stroke:none"
             d="m 0,0 -0.439,-3.005 h -12.275 v -8.171 h 11.542 l -0.476,-3.005 h -11.066 v -8.903 H 0 l -0.439,-3.005 h -15.94 V 0 Z" /></g><g
           transform="translate(238.002,47.4055)"
           id="g120"><path
             id="path122"
             style="fill:#1d1d1b;fill-opacity:1;fill-rule:nonzero;stroke:none"
             d="M 0,0 12.275,-20.189 V 0 h 3.371 V -26.089 H 12.312 L 0.037,-5.899 v -20.19 h -3.371 l 0,26.089 z" /></g></g></g></g></svg>